<?xml version="1.0" standalone="no"?>
<!DOCTYPE svg PUBLIC "-//W3C//DTD SVG 20010904//EN"
 "http://www.w3.org/TR/2001/REC-SVG-20010904/DTD/svg10.dtd">
<svg version="1.0" xmlns="http://www.w3.org/2000/svg"
 width="158.218836pt" height="157.683582pt" viewBox="0 0 158.218836 157.683582"
 preserveAspectRatio="xMidYMid meet">
<metadata>
Created by potrace 1.12, written by Peter Selinger 2001-2015
</metadata>
<g transform="translate(-22.574250,181.484766) scale(0.100000,-0.100000)"
fill="#000000" stroke="none">
<path d="M650 1811 c-154 -14 -272 -55 -327 -114 -35 -37 -64 -111 -84 -212
-24 -128 -13 -822 15 -926 29 -108 121 -236 195 -273 54 -27 127 -45 191 -48
79 -3 691 22 795 32 192 19 256 55 312 178 67 145 72 234 47 887 l-6 149 -42
91 c-47 101 -85 144 -158 181 -68 35 -129 44 -318 49 -91 2 -248 6 -350 9
-102 2 -223 1 -270 -3z m-56 -51 c-153 -27 -219 -71 -268 -173 -34 -74 -44
-131 -51 -307 -4 -85 -12 -162 -17 -170 -15 -25 -2 297 17 389 27 137 62 191
150 230 57 26 160 49 215 49 50 0 46 -2 -46 -18z m641 6 c201 -7 269 -18 335
-51 95 -49 137 -131 167 -328 24 -158 24 -595 -1 -716 -36 -176 -107 -285
-222 -342 -57 -28 -102 -29 -574 -16 -372 11 -460 22 -531 70 -49 32 -67 77
-95 239 -21 120 -24 171 -23 318 4 356 24 559 61 635 44 88 99 124 223 148 44
9 96 18 115 22 36 7 351 32 360 29 3 -1 86 -5 185 -8z m535 -1140 c-28 -162
-90 -266 -175 -296 -27 -9 -26 -6 16 30 81 69 134 177 155 316 4 27 9 43 12
35 3 -8 -1 -46 -8 -85z m-1481 -31 c1 -16 -1 -17 -9 -5 -5 8 -9 31 -9 50 l1
35 8 -30 c4 -16 8 -39 9 -50z m424 -302 c180 -6 224 -20 75 -25 -128 -4 -241
8 -294 31 -58 26 -56 33 4 14 30 -10 106 -17 215 -20z"/>
<path d="M1413 1625 c-46 -20 -58 -51 -54 -148 3 -93 200 -119 240 -31 14 32
14 92 0 134 -19 54 -112 77 -186 45z m153 -46 c10 -17 8 -129 -3 -140 -6 -6
-30 -10 -54 -11 -36 0 -47 5 -71 31 -23 25 -28 41 -28 81 l0 50 74 0 c44 0 78
-5 82 -11z"/>
<path d="M963 1470 c-75 -7 -105 -14 -166 -44 -118 -56 -173 -130 -218 -291
-24 -89 -24 -142 1 -234 35 -125 74 -189 157 -252 220 -170 553 -82 676 178
31 66 32 72 32 198 0 127 -1 132 -33 195 -67 134 -141 205 -255 244 -51 17
-53 17 -194 6z m158 -50 c19 -6 29 -4 32 3 6 18 94 -31 138 -75 23 -24 52 -76
83 -149 46 -108 48 -116 44 -193 -4 -109 -37 -177 -132 -272 -115 -115 -228
-157 -356 -134 -87 16 -104 26 -203 125 -95 94 -110 124 -122 252 -12 122 47
290 124 354 44 36 122 74 193 94 53 14 138 12 199 -5z"/>
<path d="M933 1292 c-132 -47 -213 -154 -213 -281 0 -78 88 -199 178 -245 75
-38 224 -5 308 68 101 89 114 182 46 326 -34 73 -47 89 -87 114 -61 38 -156
45 -232 18z m159 -38 c25 -8 64 -31 86 -50 54 -45 71 -114 54 -212 -19 -112
-88 -185 -186 -197 -105 -13 -190 25 -227 102 -31 64 -38 185 -14 236 54 114
167 162 287 121z"/>
</g>
</svg>
